<svg xmlns="http://www.w3.org/2000/svg" xml:space="preserve" width="143.546mm" height="42.9162mm" version="1.1" style="shape-rendering:geometricPrecision; text-rendering:geometricPrecision; image-rendering:optimizeQuality; fill-rule:evenodd; clip-rule:evenodd"
viewBox="0 0 12126.46 3625.46"
 xmlns:xlink="http://www.w3.org/1999/xlink"
 xmlns:xodm="http://www.corel.com/coreldraw/odm/2003">
 <defs>
  <style type="text/css">
   <![CDATA[
    .fil2 {fill:#FEFEFE}
    .fil1 {fill:#D1AB66}
    .fil0 {fill:#FEFEFE;fill-rule:nonzero}
   ]]>
  </style>
 </defs>
 <g id="Camada_x0020_1">
  <metadata id="CorelCorpID_0Corel-Layer"/>
  <path class="fil0" d="M1786.08 812.55l-551.85 0 0 384.29 507.2 0 0 285.97 -507.2 0 0 607.72 -352.98 0 0 -1563.98 904.83 0 0 286zm820.06 471.81c-41.32,-22.72 -89.72,-33.88 -145.21,-33.88 -74.85,0 -133.69,27.53 -175.74,82.27 -42.1,55.1 -63.32,129.55 -63.32,224.17l0 533.61 -344.08 0 0 -1117.12 344.08 0 0 207.04 4.48 0c54.32,-151.55 152.66,-227.18 294.51,-227.18 36.53,0 64.79,4.5 85.28,13.06l0 318.02zm560.86 832.97c-186.16,0 -332.5,-52.11 -439,-156.38 -106.49,-104.28 -159.76,-245.75 -159.76,-424.49 0,-184.7 55.11,-329.19 165.69,-433.47 110.62,-104.25 260.31,-156.4 448.36,-156.4 185.42,0 331.06,52.15 436.42,156.4 105.4,104.28 158.24,242.05 158.24,413.72 0,185.45 -54.34,331.78 -163.09,439.39 -108.72,107.61 -257.65,161.23 -446.86,161.23zm9.33 -907.09c-81.17,0 -144.49,27.94 -189.52,84.16 -45.09,55.87 -67.81,135.14 -67.81,237.58 0,214.46 86.45,321.75 259.57,321.75 164.96,0 247.6,-110.25 247.6,-330.31 0,-208.92 -83.42,-313.18 -249.85,-313.18zm1367.79 866.91c-51,26.77 -127.69,40.18 -230.13,40.18 -242.76,0 -364.17,-126.2 -364.17,-378.32l0 -510.88 -180.96 0 0 -254.73 180.96 0 0 -241.29 344.1 -98.32 0 339.62 250.2 0 0 254.73 -250.2 0 0 451.3c0,116.19 46.12,174.29 138.15,174.29 36.1,0 73.67,-10.46 112.05,-31.69l0 255.11zm992.44 13.38l-326.21 0 0 -160.52 -4.44 0c-74.87,124.78 -185.47,187.31 -332.55,187.31 -108.35,0 -193.61,-30.52 -255.81,-91.95 -62.2,-61.42 -93.1,-143.37 -93.1,-245.78 0,-216.35 128.47,-341.44 385.05,-374.96l303.11 -40.22c0,-122.16 -66.29,-183.21 -198.85,-183.21 -132.95,0 -259.53,39.48 -379.81,118.37l0 -259.14c48.06,-24.6 113.59,-46.56 197.01,-65.55 83.38,-18.97 159.35,-28.31 227.5,-28.31 318.76,0 478.11,159 478.11,476.67l0 667.28zm-323.95 -453.92l0 -75.6 -202.92 26.07c-112.09,14.9 -167.97,65.53 -167.97,152.29 0,39.11 13.78,71.51 40.95,96.8 27.2,24.97 64.08,37.64 110.6,37.64 64.82,0 117.68,-22.4 158.29,-67.42 40.58,-44.7 61.05,-101.28 61.05,-169.78z"/>
  <path class="fil1" d="M-0 2643.92l6206.39 0 0 -2643.92 -4884.42 0c-727.04,0 -1321.97,594.91 -1321.97,1321.95l0 1321.97zm134.71 -134.71l5937.04 0 0 -2374.55 -4749.77 0c-652.73,0 -1187.27,534.53 -1187.27,1187.28l0 1187.27z"/>
  <path class="fil0" d="M7480.45 991.89l-198.97 0 0 -524.37c0,-56.68 2.56,-119.27 7.43,-187.68l-4.87 0c-10.44,53.81 -19.78,92.38 -28.08,116.17l-209.17 595.87 -164.53 0 -212.99 -589.84c-5.73,-15.84 -15.06,-56.48 -28.04,-122.21l-5.51 0c5.29,86.33 8.05,162.28 8.05,227.32l0 484.72 -181.09 0 0 -875.97 294.61 0 182.35 519.31c14.47,41.52 25.12,83.24 31.69,125.15l3.83 0c11.05,-48.38 22.98,-90.5 35.48,-126.38l182.61 -518.08 287.2 0 0 875.97zm411.98 15.02c-106.3,0 -189.82,-29.2 -250.65,-87.61 -60.75,-58.37 -91.16,-137.62 -91.16,-237.76 0,-103.45 31.46,-184.38 94.58,-242.76 63.11,-58.42 148.58,-87.58 255.91,-87.58 105.87,0 189,29.16 249.15,87.58 60.13,58.38 90.34,135.56 90.34,231.7 0,103.88 -31.03,185.87 -93.1,246.13 -62.09,60.27 -147.13,90.32 -255.07,90.32zm5.31 -508.07c-46.34,0 -82.48,15.65 -108.21,47.16 -25.71,31.27 -38.66,75.7 -38.66,133.05 0,120.14 49.28,180.18 148.17,180.18 94.12,0 141.3,-61.73 141.3,-185 0,-117 -47.6,-175.39 -142.61,-175.39zm210.21 -429.24l-194.7 197.73 -141.99 0 161.78 -197.73 174.9 0zm791.86 296.58l-237.25 625.72 -224.23 0 -225.96 -625.72 210.43 0 110.99 385.65c12.3,43.59 19.54,80.53 21.65,111.17l2.53 0c3.02,-28.98 10.64,-64.88 22.99,-107.62l113.28 -389.21 205.56 0zm581.6 367.94l-415.75 0c6.56,90.91 64.78,136.41 174.9,136.41 69.94,0 131.58,-16.31 184.75,-48.81l0 138.89c-58.91,30.88 -135.63,46.31 -229.8,46.31 -102.9,0 -182.83,-27.92 -239.8,-84.06 -56.74,-55.87 -85.22,-133.91 -85.22,-233.99 0,-103.87 30.8,-186.08 92.26,-246.74 61.42,-60.71 136.92,-90.93 226.58,-90.93 93.1,0 164.94,27.1 215.76,81.09 50.82,54.23 76.32,127.69 76.32,220.68l0 81.15zm-182.35 -118.87c0,-89.29 -37,-133.93 -110.78,-133.93 -31.66,0 -58.86,12.76 -81.83,38.38 -23.17,25.44 -37.21,57.34 -42.1,95.55l234.7 0zm323.96 -347.92c-33.17,0 -60.58,-9.58 -81.62,-28.96 -21.26,-19.42 -31.91,-43.21 -31.91,-71.37 0,-28.98 10.64,-52.78 31.91,-71.12 21.04,-18.31 48.45,-27.52 81.62,-27.52 33.59,0 60.99,9.21 82.03,27.52 21.06,18.34 31.46,42.14 31.46,71.12 0,29.2 -10.4,53.42 -31.46,72.16 -21.03,18.79 -48.44,28.16 -82.03,28.16zm96.95 724.56l-196.44 0 0 -625.72 196.44 0 0 625.72zm48.67 -16.27l0 -156.43c32.34,18.97 64.63,33.14 96.93,42.35 32.11,9.37 62.73,13.96 91.2,13.96 35.08,0 62.5,-4.59 82.7,-13.96 20.2,-9.39 30.18,-23.56 30.18,-42.75 0,-12.33 -4.49,-22.31 -13.63,-30.44 -9.12,-8.14 -21.03,-15.45 -35.27,-21.51 -14.47,-6.06 -30,-11.46 -46.94,-16.47 -17.23,-4.82 -33.61,-10.44 -49.34,-16.47 -25.3,-9.39 -47.63,-19.4 -66.97,-30.23 -19.35,-10.64 -35.51,-23.19 -48.65,-37.55 -12.98,-14.21 -22.96,-30.67 -30.01,-49.45 -6.78,-18.72 -10.21,-40.87 -10.21,-66.51 0,-35.04 7.92,-65.06 23.42,-90.32 15.51,-25.21 36.33,-45.88 62.26,-61.95 26.15,-16.03 55.93,-27.94 89.31,-35.43 33.36,-7.53 68.22,-11.25 104.34,-11.25 28.27,0 56.95,2.07 86.1,6.43 29.13,4.19 57.8,10.46 86.07,18.6l0 148.89c-24.87,-14.18 -51.64,-24.83 -80.13,-31.91 -28.49,-7.12 -56.53,-10.64 -83.97,-10.64 -12.96,0 -25.1,1.05 -36.55,3.35 -11.24,2.27 -21.47,5.41 -30.17,9.81 -8.7,4.16 -15.49,9.78 -20.63,16.46 -4.87,6.67 -7.43,14.39 -7.43,22.94 0,11.25 3.83,21.05 11.26,29.2 7.44,8.12 17.21,15.22 29.35,21.06 11.87,5.83 25.29,11.25 40.17,15.84 14.67,4.81 29.31,9.61 43.78,14.39 26.15,8.98 49.95,18.79 70.97,29.22 21.29,10.64 39.34,23.11 54.65,37.33 15.08,14.18 26.79,30.89 34.86,50.06 8.06,19.22 12.11,41.92 12.11,68.4 0,36.92 -8.27,68.65 -24.64,94.9 -16.37,26.28 -38.25,47.56 -65.5,64.03 -27.19,16.48 -58.42,28.57 -93.97,36.09 -35.43,7.51 -72.43,11.25 -110.48,11.25 -70.39,0 -135.43,-10.44 -195.17,-31.29zm-3104.43 1072.57l0 301.61 -201.5 0 0 -876.02 315.22 0c225.12,0 337.78,93.02 337.78,279.26 0,88.01 -32.32,159.15 -96.95,213.59 -64.38,54.44 -150.71,81.55 -258.65,81.55l-95.89 0zm0 -422.98l0 272.8 79.09 0c107.12,0 160.68,-45.88 160.68,-137.83 0,-89.91 -53.56,-134.96 -160.68,-134.96l-79.09 0zm684.08 724.59l-196.43 0 0 -926.08 196.43 0 0 926.08zm621.33 0l-186.22 0 0 -89.93 -2.49 0c-42.74,69.85 -105.88,104.95 -189.89,104.95 -61.83,0 -110.47,-17.13 -146.03,-51.56 -35.45,-34.38 -53.13,-80.29 -53.13,-137.66 0,-121.16 73.35,-191.23 219.81,-210.02l173.02 -22.53c0,-68.4 -37.82,-102.6 -113.49,-102.6 -75.9,0 -148.17,22.1 -216.85,66.33l0 -145.19c27.46,-13.75 64.85,-26.03 112.48,-36.67 47.6,-10.64 90.95,-15.88 129.86,-15.88 181.96,0 272.93,89.09 272.93,266.98l0 373.77zm-184.93 -254.27l0 -42.33 -115.82 14.6c-64.02,8.33 -95.87,36.71 -95.87,85.32 0,21.88 7.82,40.01 23.36,54.19 15.53,14 36.57,21.09 63.11,21.09 37,0 67.17,-12.53 90.36,-37.76 23.15,-25.01 34.86,-56.72 34.86,-95.1zm881.54 254.27l-196.41 0 0 -347.72c0,-96.97 -35.31,-145.34 -106.08,-145.34 -33.99,0 -62.03,12.92 -84.18,38.58 -21.88,25.62 -32.93,58.16 -32.93,97.61l0 356.87 -196.39 0 0 -625.75 196.39 0 0 99.09 2.56 0c46.97,-76.13 115.2,-114.1 205.14,-114.1 141.31,0 211.9,85.94 211.9,257.79l0 382.96zm653.04 -257.79l-415.77 0c6.59,90.93 64.82,136.39 174.93,136.39 69.91,0 131.57,-16.3 184.74,-48.82l0 138.93c-58.9,30.86 -135.65,46.31 -229.81,46.31 -102.87,0 -182.8,-27.95 -239.74,-84.06 -56.79,-55.93 -85.25,-133.93 -85.25,-234.01 0,-103.88 30.83,-186.05 92.22,-246.76 61.46,-60.68 136.91,-90.95 226.62,-90.95 93.06,0 164.92,27.12 215.73,81.12 50.84,54.26 76.33,127.65 76.33,220.69l0 81.15zm-182.38 -118.91c0,-89.28 -37.02,-133.91 -110.74,-133.91 -31.68,0 -58.9,12.72 -81.87,38.39 -23.16,25.44 -37.19,57.35 -42.1,95.52l234.7 0zm323.98 -347.89c-33.16,0 -60.56,-9.55 -81.64,-28.99 -21.25,-19.4 -31.86,-43.14 -31.86,-71.35 0,-28.98 10.62,-52.76 31.86,-71.12 21.08,-18.33 48.48,-27.48 81.64,-27.48 33.59,0 60.99,9.15 82.03,27.48 21.04,18.36 31.5,42.15 31.5,71.12 0,29.2 -10.46,53.44 -31.5,72.2 -21.03,18.75 -48.44,28.14 -82.03,28.14zm96.93 713.72c0,92.41 -22.99,166.45 -69.09,221.74 -46.09,55.44 -112.44,83.19 -199.18,83.19 -28.69,0 -59.92,-6.04 -93.94,-18.36l0 -151.82c27.4,15 51.64,22.51 72.9,22.51 61.87,0 92.89,-47.56 92.89,-142.87l0 -629.27 196.42 0 0 614.88zm621.35 10.87l-186.18 0 0 -89.93 -2.58 0c-42.74,69.85 -105.88,104.95 -189.82,104.95 -61.85,0 -110.54,-17.13 -146.03,-51.56 -35.49,-34.38 -53.11,-80.29 -53.11,-137.66 0,-121.16 73.29,-191.23 219.77,-210.02l173.04 -22.53c0,-68.4 -37.85,-102.6 -113.55,-102.6 -75.84,0 -148.11,22.1 -216.78,66.33l0 -145.19c27.39,-13.75 64.82,-26.03 112.42,-36.67 47.63,-10.64 90.99,-15.88 129.88,-15.88 181.96,0 272.93,89.09 272.93,266.98l0 373.77zm-184.91 -254.27l0 -42.33 -115.88 14.6c-63.93,8.33 -95.84,36.71 -95.84,85.32 0,21.88 7.86,40.01 23.37,54.19 15.51,14 36.57,21.09 63.14,21.09 36.96,0 67.17,-12.53 90.33,-37.76 23.17,-25.01 34.87,-56.72 34.87,-95.1zm889.18 254.27l-196.44 0 0 -86.37 -2.52 0c-44.84,67.58 -110.74,101.39 -197.5,101.39 -79.7,0 -143.87,-27.55 -192.54,-82.82 -48.69,-55.05 -72.92,-132.03 -72.92,-231.09 0,-103.23 26.79,-186.26 80.35,-248.4 53.56,-62.38 123.9,-93.47 210.64,-93.47 82.26,0 139.67,28.79 171.98,86.57l2.52 0 0 -371.9 196.44 0 0 926.08zm-192.57 -304.31l0 -47.16c0,-40.64 -12.14,-74.45 -36.16,-101.35 -24.01,-26.91 -55.46,-40.24 -93.96,-40.24 -43.76,0 -77.8,16.89 -102.25,50.43 -24.41,33.56 -36.74,79.7 -36.74,138.31 0,55.05 11.91,97.38 35.49,127.01 23.6,29.8 56.53,44.6 98.42,44.6 39.95,0 72.47,-15.61 97.56,-47.09 25.07,-31.3 37.63,-72.8 37.63,-124.52zm586.91 319.33c-106.26,0 -189.82,-29.22 -250.63,-87.64 -60.76,-58.39 -91.16,-137.63 -91.16,-237.75 0,-103.43 31.44,-184.36 94.56,-242.79 63.18,-58.37 148.6,-87.59 255.93,-87.59 105.87,0 189,29.22 249.12,87.59 60.16,58.43 90.37,135.59 90.37,231.71 0,103.89 -31.05,185.83 -93.1,246.11 -62.07,60.32 -147.11,90.36 -255.09,90.36zm5.34 -508.07c-46.37,0 -82.49,15.64 -108.24,47.11 -25.71,31.26 -38.67,75.73 -38.67,133.07 0,120.12 49.31,180.17 148.16,180.17 94.17,0 141.36,-61.7 141.36,-184.97 0,-116.98 -47.65,-175.38 -142.62,-175.38zm353.5 476.78l0 -156.44c32.31,18.99 64.65,33.16 96.93,42.34 32.11,9.38 62.68,13.96 91.22,13.96 35.06,0 62.48,-4.59 82.68,-13.96 20.2,-9.37 30.19,-23.58 30.19,-42.73 0,-12.33 -4.49,-22.35 -13.62,-30.5 -9.17,-8.13 -21.03,-15.39 -35.26,-21.45 -14.49,-6.07 -30,-11.52 -47.01,-16.53 -17.21,-4.75 -33.56,-10.4 -49.3,-16.44 -25.29,-9.39 -47.62,-19.42 -66.97,-30.23 -19.36,-10.64 -35.49,-23.19 -48.71,-37.58 -12.95,-14.17 -22.92,-30.66 -29.94,-49.43 -6.8,-18.79 -10.21,-40.83 -10.21,-66.53 0,-35.02 7.86,-65.06 23.41,-90.27 15.49,-25.26 36.33,-45.91 62.29,-61.96 26.13,-16.07 55.87,-27.98 89.23,-35.46 33.36,-7.51 68.26,-11.28 104.42,-11.28 28.24,0 56.95,2.06 86.04,6.49 29.12,4.16 57.83,10.42 86.1,18.54l0 148.91c-24.84,-14.16 -51.62,-24.8 -80.1,-31.88 -28.49,-7.1 -56.57,-10.64 -83.98,-10.64 -12.97,0 -25.11,1.04 -36.55,3.35 -11.3,2.27 -21.52,5.41 -30.23,9.78 -8.69,4.17 -15.49,9.78 -20.59,16.47 -4.89,6.7 -7.45,14.39 -7.45,22.93 0,11.28 3.87,21.08 11.3,29.2 7.41,8.14 17.19,15.22 29.31,21.06 11.91,5.87 25.32,11.29 40.18,15.86 14.71,4.83 29.35,9.58 43.78,14.41 26.15,8.96 49.98,18.79 71.01,29.19 21.23,10.66 39.3,23.16 54.62,37.35 15.1,14.2 26.77,30.84 34.86,50.06 8.08,19.18 12.11,41.93 12.11,68.4 0,36.9 -8.29,68.6 -24.66,94.89 -16.33,26.26 -38.27,47.57 -65.47,64.03 -27.22,16.49 -58.43,28.59 -93.96,36.1 -35.51,7.51 -72.47,11.28 -110.52,11.28 -70.39,0 -135.4,-10.46 -195.14,-31.29z"/>
  <path class="fil2" d="M-0 2897.54l12126.46 0 0 363.97c0,200.16 -163.77,363.95 -363.91,363.95l-11398.57 0c-200.16,0 -363.97,-163.79 -363.97,-363.95l0 -363.97zm1195.28 639.75l-95.65 0 0 -172.55 -175.62 0 0 172.55 -95.64 0 0 -423.85 95.64 0 0 168.95 175.62 0 0 -168.95 95.65 0 0 423.85zm470.01 0l-104.13 0 -29.68 -94.43 -151.72 0 -29.35 94.43 -103.55 0 154.33 -423.85 113.3 0 150.79 423.85zm-155.81 -167.68l-45.84 -142.32c-3.34,-10.7 -5.74,-23.42 -7.16,-38.17l-2.31 0c-0.98,12.42 -3.42,24.74 -7.47,36.94l-46.32 143.54 109.1 0zm40.77 -391.19l-92.44 95.66 -67.44 0 76.83 -95.66 83.05 0zm818.04 558.87l-94.44 0 0 -253.68c0,-27.45 1.19,-57.73 3.51,-90.85l-2.31 0c-4.95,26.04 -9.38,44.72 -13.32,56.22l-99.29 288.31 -78.13 0 -101.09 -285.4c-2.76,-7.65 -7.21,-27.32 -13.36,-59.13l-2.6 0c2.54,41.79 3.81,78.51 3.81,110.02l0 234.5 -85.96 0 0 -423.85 139.86 0 86.57 251.3c6.88,20.07 11.94,40.25 15.05,60.55l1.82 0c5.25,-23.43 10.91,-43.79 16.86,-61.19l86.72 -250.67 136.3 0 0 423.85zm469.29 0l-104.14 0 -29.68 -94.43 -151.71 0 -29.35 94.43 -103.54 0 154.32 -423.85 113.33 0 150.78 423.85zm-155.81 -167.68l-45.85 -142.32c-3.34,-10.7 -5.73,-23.42 -7.16,-38.17l-2.31 0c-1,12.42 -3.41,24.74 -7.47,36.94l-46.31 143.54 109.1 0zm339.98 -256.17l0 73.88 -35.73 0 0 276.12 35.73 0 0 73.84 -167.11 0 0 -73.84 35.73 0 0 -276.12 -35.73 0 0 -73.88 167.11 0zm41.08 407.52l0 -94.45c17.15,14.33 35.84,25.03 56.01,32.19 20.12,7.16 40.46,10.77 60.99,10.77 11.97,0 22.56,-1.09 31.58,-3.22 8.95,-2.19 16.44,-5.11 22.37,-9.06 6.08,-3.85 10.6,-8.39 13.55,-13.52 2.91,-5.26 4.42,-10.91 4.42,-17.06 0,-8.29 -2.33,-15.63 -7.06,-22.1 -4.76,-6.55 -11.19,-12.53 -19.48,-18.07 -8.17,-5.55 -17.84,-10.89 -29.19,-15.97 -11.15,-5.12 -23.41,-10.37 -36.38,-15.72 -33.1,-13.71 -57.86,-30.57 -74.21,-50.47 -16.25,-19.97 -24.4,-44 -24.4,-72.14 0,-22.12 4.44,-41.1 13.31,-56.91 8.89,-15.88 21,-28.96 36.25,-39.17 15.21,-10.3 32.99,-17.75 53.07,-22.61 20.2,-4.83 41.48,-7.25 63.92,-7.25 22.06,0 41.62,1.29 58.71,4.03 17.05,2.62 32.81,6.76 47.2,12.33l0 88.37c-7.04,-4.92 -14.82,-9.29 -23.16,-12.98 -8.4,-3.89 -17.09,-6.98 -25.93,-9.39 -8.9,-2.56 -17.68,-4.36 -26.48,-5.47 -8.73,-1.21 -17.15,-1.82 -25.01,-1.82 -10.91,0 -20.71,1.03 -29.56,3.13 -8.88,2.03 -16.47,4.95 -22.51,8.68 -6.16,3.75 -10.89,8.27 -14.22,13.45 -3.36,5.24 -5.06,11.08 -5.06,17.66 0,7.04 1.93,13.38 5.63,19.03 3.77,5.57 9.11,10.91 15.97,15.98 6.94,5.02 15.35,9.87 25.23,14.73 9.91,4.83 21,9.77 33.44,14.9 17.01,7.16 32.24,14.66 45.76,22.63 13.55,7.97 25.15,17.03 34.83,27.04 9.58,10.09 17.05,21.59 22.19,34.53 5.15,12.92 7.69,27.84 7.69,44.98 0,23.72 -4.44,43.53 -13.44,59.64 -8.96,16.08 -21.19,29.08 -36.64,38.99 -15.32,9.99 -33.19,17.15 -53.68,21.49 -20.37,4.33 -41.96,6.46 -64.68,6.46 -23.23,0 -45.42,-2.04 -66.42,-5.97 -20.99,-3.91 -39.15,-9.78 -54.6,-17.66zm525.81 16.33l0 -423.85 150.14 0c150.59,0 225.88,68.85 225.88,206.61 0,65.98 -20.63,118.78 -61.67,158.14 -41.09,39.43 -95.78,59.1 -164.22,59.1l-150.14 0zm95.64 -346.32l0 268.84 47.26 0c41.36,0 73.76,-12.4 97.29,-37.23 23.52,-24.86 35.31,-58.74 35.31,-101.43 0,-40.48 -11.71,-72.26 -35.02,-95.49 -23.31,-23.06 -55.99,-34.69 -98.17,-34.69l-46.67 0zm605.1 346.32l-254.27 0 0 -423.85 244.6 0 0 77.53 -148.95 0 0 94.47 138.64 0 0 77.48 -138.64 0 0 96.89 158.62 0 0 77.48zm432.35 -433.53l0 433.53 -93.22 0 0 -328.15c-5.18,4.42 -11.24,8.78 -18.2,12.79 -6.94,4.07 -14.41,7.68 -22.31,10.93 -7.86,3.31 -16.1,6.04 -24.5,8.35 -8.49,2.21 -16.86,3.85 -25.22,4.86l0 -78.76c24.34,-7.04 47.11,-16.1 68.63,-27.22 21.49,-10.99 40.97,-23.1 58.32,-36.33l56.49 0zm274.51 440.84c-101,0 -151.49,-70.88 -151.49,-212.56 0,-73.47 13.63,-129.57 40.97,-168 27.26,-38.58 66.92,-57.84 118.78,-57.84 98.63,0 147.84,72.04 147.84,216.06 0,71.78 -13.4,126.77 -40.35,165 -26.93,38.27 -65.51,57.34 -115.76,57.34zm4.26 -366.95c-40.48,0 -60.64,50.77 -60.64,152.19 0,95.58 19.77,143.3 59.41,143.3 38.64,0 58.04,-49.24 58.04,-147.74 0,-98.5 -18.97,-147.74 -56.82,-147.74zm760.43 359.65l-104.15 0 -29.68 -94.43 -151.68 0 -29.35 94.43 -103.55 0 154.29 -423.85 113.3 0 150.82 423.85zm-155.84 -167.68l-45.82 -142.32c-3.31,-10.7 -5.73,-23.42 -7.14,-38.17l-2.31 0c-1.01,12.42 -3.46,24.74 -7.49,36.94l-46.31 143.54 109.08 0zm590.08 167.68l-96.27 0 -174.89 -266.28c-10.21,-15.55 -17.33,-27.29 -21.29,-35.12l-1.12 0c1.51,14.94 2.31,37.72 2.31,68.49l0 232.9 -90.21 0 0 -423.85 102.94 0 168.23 258.05c7.68,11.58 14.74,23.13 21.31,34.63l1.09 0c-1.48,-9.9 -2.34,-29.26 -2.34,-58.22l0 -234.46 90.24 0 0 423.85zm276.01 7.31c-60.7,0 -110.17,-19.79 -148.44,-59.27 -38.25,-39.56 -57.33,-91.02 -57.33,-154.5 0,-66.98 19.4,-121.22 58.22,-162.56 38.89,-41.39 90.34,-62.07 154.34,-62.07 60.55,0 109.51,19.77 146.82,59.44 37.33,39.56 56.02,91.83 56.02,156.62 0,66.6 -19.36,120.3 -58.15,161.19 -38.64,40.75 -89.19,61.15 -151.49,61.15zm4.16 -356.05c-33.5,0 -60.15,12.5 -79.81,37.63 -19.67,25.13 -29.58,58.42 -29.58,99.82 0,41.95 9.9,75.17 29.58,99.61 19.67,24.41 45.52,36.61 77.53,36.61 32.86,0 58.92,-11.91 78.28,-35.62 19.3,-23.7 28.96,-56.71 28.96,-98.91 0,-43.89 -9.37,-78.12 -28.06,-102.54 -18.75,-24.44 -44.39,-36.61 -76.89,-36.61zm256.57 332.41l0 -94.45c17.12,14.33 35.81,25.03 56.01,32.19 20.06,7.16 40.46,10.77 60.95,10.77 12.01,0 22.57,-1.09 31.58,-3.22 8.97,-2.19 16.46,-5.11 22.41,-9.06 6.06,-3.85 10.6,-8.39 13.53,-13.52 2.88,-5.26 4.42,-10.91 4.42,-17.06 0,-8.29 -2.33,-15.63 -7.08,-22.1 -4.73,-6.55 -11.18,-12.53 -19.45,-18.07 -8.19,-5.55 -17.87,-10.89 -29.19,-15.97 -11.19,-5.12 -23.39,-10.37 -36.43,-15.72 -33.09,-13.71 -57.83,-30.57 -74.19,-50.47 -16.25,-19.97 -24.41,-44 -24.41,-72.14 0,-22.12 4.46,-41.1 13.32,-56.91 8.88,-15.88 21.02,-28.96 36.24,-39.17 15.23,-10.3 33,-17.75 53.07,-22.61 20.2,-4.83 41.49,-7.25 63.9,-7.25 22.1,0 41.65,1.29 58.72,4.03 17.06,2.62 32.83,6.76 47.23,12.33l0 88.37c-7.04,-4.92 -14.8,-9.29 -23.21,-12.98 -8.35,-3.89 -17.05,-6.98 -25.91,-9.39 -8.9,-2.56 -17.65,-4.36 -26.47,-5.47 -8.76,-1.21 -17.15,-1.82 -25.05,-1.82 -10.89,0 -20.65,1.03 -29.58,3.13 -8.86,2.03 -16.4,4.95 -22.47,8.68 -6.16,3.75 -10.89,8.27 -14.23,13.45 -3.31,5.24 -5.05,11.08 -5.05,17.66 0,7.04 1.93,13.38 5.63,19.03 3.74,5.57 9.11,10.91 15.98,15.98 6.92,5.02 15.33,9.87 25.22,14.73 9.87,4.83 21,9.77 33.42,14.9 17.03,7.16 32.3,14.66 45.8,22.63 13.52,7.97 25.13,17.03 34.81,27.04 9.58,10.09 17.05,21.59 22.23,34.53 5.12,12.92 7.64,27.84 7.64,44.98 0,23.72 -4.46,43.53 -13.43,59.64 -8.96,16.08 -21.18,29.08 -36.61,38.99 -15.35,9.99 -33.19,17.15 -53.7,21.49 -20.36,4.33 -41.95,6.46 -64.68,6.46 -23.22,0 -45.43,-2.04 -66.41,-5.97 -21,-3.91 -39.16,-9.78 -54.58,-17.66zm907.26 16.33l-96.3 0 -174.89 -266.28c-10.21,-15.55 -17.35,-27.29 -21.31,-35.12l-1.12 0c1.51,14.94 2.31,37.72 2.31,68.49l0 232.9 -90.21 0 0 -423.85 102.96 0 168.24 258.05c7.65,11.58 14.72,23.13 21.28,34.63l1.12 0c-1.51,-9.9 -2.33,-29.26 -2.33,-58.22l0 -234.46 90.24 0 0 423.85zm275.99 7.31c-60.72,0 -110.19,-19.79 -148.46,-59.27 -38.22,-39.56 -57.31,-91.02 -57.31,-154.5 0,-66.98 19.38,-121.22 58.23,-162.56 38.86,-41.39 90.32,-62.07 154.31,-62.07 60.56,0 109.52,19.77 146.85,59.44 37.36,39.56 56.03,91.83 56.03,156.62 0,66.6 -19.4,120.3 -58.14,161.19 -38.67,40.75 -89.23,61.15 -151.51,61.15zm4.17 -356.05c-33.55,0 -60.17,12.5 -79.84,37.63 -19.69,25.13 -29.59,58.42 -29.59,99.82 0,41.95 9.9,75.17 29.59,99.61 19.67,24.41 45.52,36.61 77.51,36.61 32.89,0 58.92,-11.91 78.3,-35.62 19.28,-23.7 28.96,-56.71 28.96,-98.91 0,-43.89 -9.39,-78.12 -28.04,-102.54 -18.79,-24.44 -44.44,-36.61 -76.89,-36.61zm926.11 348.74l-94.45 0 0 -253.68c0,-27.45 1.18,-57.73 3.54,-90.85l-2.36 0c-4.93,26.04 -9.33,44.72 -13.31,56.22l-99.29 288.31 -78.1 0 -101.15 -285.4c-2.7,-7.65 -7.16,-27.32 -13.31,-59.13l-2.62 0c2.52,41.79 3.83,78.51 3.83,110.02l0 234.5 -86 0 0 -423.85 139.9 0 86.57 251.3c6.88,20.07 11.89,40.25 15.02,60.55l1.82 0c5.26,-23.43 10.91,-43.79 16.86,-61.19l86.7 -250.67 136.32 0 0 423.85zm350.61 0l-254.31 0 0 -423.85 244.63 0 0 77.53 -148.95 0 0 94.47 138.64 0 0 77.48 -138.64 0 0 96.89 158.63 0 0 77.48zm423.67 0l-109.62 0 -65.99 -109.06c-4.85,-8.27 -9.57,-15.65 -14.14,-22.21 -4.54,-6.45 -9.05,-11.99 -13.73,-16.63 -4.6,-4.67 -9.5,-8.19 -14.53,-10.63 -4.93,-2.52 -10.46,-3.73 -16.35,-3.73l-25.69 0 0 162.26 -95.71 0 0 -423.85 151.41 0c102.92,0 154.39,38.47 154.39,115.26 0,14.84 -2.23,28.47 -6.75,40.97 -4.54,12.51 -11.03,23.82 -19.3,33.82 -8.29,10.09 -18.23,18.76 -29.96,26.01 -11.7,7.31 -24.74,13.03 -39.17,17.19l0 1.21c6.37,1.9 12.43,5.14 18.36,9.55 5.9,4.44 11.61,9.62 17.17,15.58 5.47,5.85 10.8,12.17 15.74,19.05 5.06,6.78 9.68,13.43 13.85,19.89l80.03 125.31zm-260.05 -352.38l0 118.09 41.34 0c20.49,0 36.94,-5.96 49.34,-17.79 12.63,-12.03 18.87,-26.97 18.87,-44.7 0,-37.03 -22.21,-55.6 -66.52,-55.6l-43.04 0zm603.55 337.28c-30.96,14.94 -71.32,22.41 -121.18,22.41 -65.12,0 -116.27,-19.08 -153.51,-57.34 -37.23,-38.23 -55.92,-89.19 -55.92,-152.9 0,-67.7 21,-122.71 62.92,-164.89 41.85,-42.16 96.14,-63.27 163.05,-63.27 41.39,0 76.32,5.26 104.64,15.74l0 92.01c-28.33,-16.95 -60.74,-25.39 -96.97,-25.39 -39.86,0 -71.96,12.5 -96.46,37.52 -24.43,25.03 -36.65,58.92 -36.65,101.64 0,41.07 11.49,73.66 34.61,97.99 23.03,24.34 54.09,36.54 93.15,36.54 37.25,0 71.37,-9.09 102.33,-27.24l0 87.21zm446.92 15.1l-104.15 0 -29.68 -94.43 -151.71 0 -29.33 94.43 -103.56 0 154.32 -423.85 113.3 0 150.82 423.85zm-155.83 -167.68l-45.83 -142.32c-3.33,-10.7 -5.77,-23.42 -7.16,-38.17l-2.31 0c-1.02,12.42 -3.46,24.74 -7.48,36.94l-46.33 143.54 109.1 0zm208.57 167.68l0 -423.85 150.2 0c150.57,0 225.87,68.85 225.87,206.61 0,65.98 -20.59,118.78 -61.69,158.14 -41.06,39.43 -95.76,59.1 -164.18,59.1l-150.2 0zm95.72 -346.32l0 268.84 47.21 0c41.36,0 73.77,-12.4 97.26,-37.23 23.51,-24.86 35.36,-58.74 35.36,-101.43 0,-40.48 -11.71,-72.26 -35.02,-95.49 -23.33,-23.06 -56.02,-34.69 -98.21,-34.69l-46.61 0zm529.91 353.63c-60.76,0 -110.23,-19.79 -148.48,-59.27 -38.22,-39.56 -57.29,-91.02 -57.29,-154.5 0,-66.98 19.35,-121.22 58.23,-162.56 38.84,-41.39 90.32,-62.07 154.3,-62.07 60.55,0 109.51,19.77 146.86,59.44 37.31,39.56 55.97,91.83 55.97,156.62 0,66.6 -19.36,120.3 -58.13,161.19 -38.61,40.75 -89.23,61.15 -151.47,61.15zm4.13 -356.05c-33.52,0 -60.12,12.5 -79.86,37.63 -19.67,25.13 -29.58,58.42 -29.58,99.82 0,41.95 9.91,75.17 29.58,99.61 19.73,24.41 45.58,36.61 77.53,36.61 32.91,0 58.95,-11.91 78.33,-35.62 19.26,-23.7 28.96,-56.71 28.96,-98.91 0,-43.89 -9.38,-78.12 -28.04,-102.54 -18.81,-24.44 -44.44,-36.61 -76.92,-36.61z"/>
  <path class="fil2" d="M11909.84 117.35c118.56,0 214.67,96.14 214.67,214.69 0,118.58 -96.11,214.65 -214.67,214.65 -118.56,0 -214.67,-96.07 -214.67,-214.65 0,-118.56 96.11,-214.69 214.67,-214.69zm88.41 319.99l-54.45 0 -32.81 -54.19c-2.42,-4.11 -4.79,-7.78 -7.04,-11.02 -2.23,-3.23 -4.54,-6 -6.82,-8.29 -2.29,-2.29 -4.71,-4.05 -7.21,-5.25 -2.46,-1.25 -5.22,-1.85 -8.14,-1.85l-12.77 0 0 80.6 -47.52 0 0 -210.59 75.21 0c51.13,0 76.71,19.11 76.71,57.26 0,7.37 -1.08,14.14 -3.38,20.37 -2.23,6.22 -5.44,11.85 -9.57,16.78 -4.11,5.02 -9.07,9.33 -14.86,12.96 -5.84,3.58 -12.3,6.49 -19.49,8.49l0 0.64c3.16,0.94 6.18,2.53 9.13,4.75 2.92,2.23 5.8,4.76 8.56,7.71 2.68,2.91 5.36,6.06 7.8,9.5 2.49,3.35 4.81,6.67 6.88,9.87l39.78 62.28zm-129.24 -175.09l0 58.65 20.55 0c10.19,0 18.37,-2.94 24.53,-8.79 6.24,-5.98 9.35,-13.43 9.35,-22.23 0,-18.42 -11.02,-27.63 -33.03,-27.63l-21.41 0zm40.83 -99.16c93.35,0 168.96,75.62 168.96,168.95 0,93.33 -75.61,168.95 -168.96,168.95 -93.31,0 -168.92,-75.62 -168.92,-168.95 0,-93.32 75.62,-168.95 168.92,-168.95z"/>
 </g>
</svg>
